<?xml version="1.0" encoding="UTF-8"?>
<svg xmlns="http://www.w3.org/2000/svg" version="1.1" width="200" height="200" viewBox="0 0 200 200"><rect x="0" y="0" width="200" height="200" fill="#fefefe"/><g transform="scale(6.061)"><g transform="translate(4.000,4.000)"><path fill-rule="evenodd" d="M8 0L8 1L9 1L9 2L10 2L10 3L11 3L11 4L14 4L14 3L16 3L16 7L15 7L15 5L14 5L14 7L13 7L13 6L12 6L12 5L10 5L10 4L9 4L9 5L10 5L10 8L9 8L9 6L8 6L8 8L9 8L9 9L8 9L8 10L6 10L6 9L7 9L7 8L6 8L6 9L5 9L5 8L3 8L3 9L2 9L2 8L0 8L0 11L2 11L2 12L3 12L3 13L2 13L2 14L1 14L1 12L0 12L0 17L1 17L1 15L2 15L2 14L3 14L3 13L4 13L4 15L3 15L3 16L2 16L2 17L3 17L3 16L5 16L5 17L8 17L8 18L9 18L9 20L8 20L8 22L9 22L9 23L8 23L8 25L10 25L10 24L9 24L9 23L10 23L10 22L11 22L11 23L13 23L13 22L15 22L15 21L16 21L16 23L17 23L17 24L16 24L16 25L18 25L18 24L21 24L21 25L22 25L22 24L24 24L24 25L25 25L25 21L24 21L24 20L25 20L25 18L24 18L24 16L25 16L25 14L24 14L24 13L25 13L25 10L24 10L24 9L25 9L25 8L24 8L24 9L19 9L19 8L18 8L18 9L19 9L19 10L16 10L16 9L17 9L17 3L16 3L16 2L17 2L17 1L16 1L16 2L15 2L15 1L14 1L14 0L10 0L10 1L9 1L9 0ZM11 1L11 3L13 3L13 2L14 2L14 1L13 1L13 2L12 2L12 1ZM11 6L11 9L10 9L10 10L8 10L8 11L10 11L10 10L11 10L11 9L12 9L12 11L11 11L11 12L10 12L10 13L9 13L9 14L8 14L8 12L7 12L7 11L6 11L6 10L5 10L5 9L3 9L3 11L6 11L6 12L7 12L7 13L5 13L5 12L4 12L4 13L5 13L5 14L8 14L8 15L5 15L5 16L9 16L9 18L10 18L10 16L11 16L11 18L15 18L15 19L14 19L14 20L13 20L13 19L11 19L11 20L13 20L13 21L12 21L12 22L13 22L13 21L14 21L14 20L15 20L15 19L16 19L16 17L15 17L15 16L17 16L17 15L18 15L18 14L19 14L19 15L20 15L20 16L21 16L21 21L19 21L19 22L17 22L17 23L20 23L20 22L23 22L23 19L24 19L24 18L22 18L22 16L21 16L21 15L20 15L20 13L21 13L21 14L23 14L23 13L24 13L24 12L20 12L20 10L19 10L19 12L20 12L20 13L18 13L18 11L15 11L15 12L14 12L14 10L13 10L13 9L14 9L14 8L13 8L13 9L12 9L12 6ZM1 9L1 10L2 10L2 9ZM22 10L22 11L24 11L24 10ZM12 11L12 12L11 12L11 14L12 14L12 13L13 13L13 14L14 14L14 16L12 16L12 15L11 15L11 16L12 16L12 17L14 17L14 16L15 16L15 15L16 15L16 14L17 14L17 12L16 12L16 13L15 13L15 14L14 14L14 13L13 13L13 11ZM9 14L9 16L10 16L10 14ZM23 15L23 16L24 16L24 15ZM17 17L17 20L20 20L20 17ZM18 18L18 19L19 19L19 18ZM21 23L21 24L22 24L22 23ZM12 24L12 25L13 25L13 24ZM14 24L14 25L15 25L15 24ZM0 0L0 7L7 7L7 0ZM1 1L1 6L6 6L6 1ZM2 2L2 5L5 5L5 2ZM25 0L18 0L18 7L25 7ZM24 1L19 1L19 6L24 6ZM23 2L20 2L20 5L23 5ZM0 25L7 25L7 18L0 18ZM1 24L6 24L6 19L1 19ZM2 23L5 23L5 20L2 20Z" fill="#000000"/></g></g></svg>
